<?xml version="1.0" encoding="utf-8"?>
<!-- Generator: Adobe Illustrator 12.0.0, SVG Export Plug-In  -->
<!DOCTYPE svg PUBLIC "-//W3C//DTD SVG 1.1//EN" "http://www.w3.org/Graphics/SVG/1.1/DTD/svg11.dtd" [
	<!ENTITY ns_flows "http://ns.adobe.com/Flows/1.0/">
	<!ENTITY ns_svg "http://www.w3.org/2000/svg">
	<!ENTITY ns_xlink "http://www.w3.org/1999/xlink">
]>
<svg  version="1.1" xmlns="&ns_svg;" xmlns:xlink="&ns_xlink;" xmlns:a="http://ns.adobe.com/AdobeSVGViewerExtensions/3.0/"
	 width="440" height="202" viewBox="-0.288 -0.865 440 202" enable-background="new -0.288 -0.865 440 202" xml:space="preserve">
<defs>
</defs>
<polygon fill="#0DB14B" points="343.793,146.422 343.793,156.711 375.844,155.868 375.844,147.219 "/>
<polygon fill="#0DB14B" points="343.793,157.403 343.793,167.704 375.844,166.86 375.844,158.211 "/>
<polygon fill="#0DB14B" points="343.793,91.532 343.793,101.827 375.844,100.977 375.844,92.334 "/>
<polygon fill="#0DB14B" points="343.793,190.333 343.793,200.633 438.739,198.102 438.739,192.711 "/>
<polygon fill="#0DB14B" points="343.793,179.352 343.793,189.653 438.739,187.133 438.739,181.743 "/>
<polygon fill="#0DB14B" points="343.793,168.383 343.793,178.672 438.739,176.153 438.739,170.75 "/>
<polygon fill="#0DB14B" points="343.793,102.506 343.793,112.801 375.844,111.969 375.844,103.309 "/>
<polygon fill="#0DB14B" points="343.793,113.493 343.793,123.782 375.844,122.938 375.844,114.29 "/>
<polygon fill="#0DB14B" points="343.793,135.442 343.793,145.743 375.844,144.899 375.844,136.25 "/>
<polygon fill="#0DB14B" points="343.793,124.461 343.793,134.774 375.844,133.918 375.844,125.258 "/>
<polygon fill="#005496" points="97.659,178.684 129.733,177.829 129.733,169.18 97.659,168.383 "/>
<path fill-rule="evenodd" clip-rule="evenodd" fill="#005496" d="M97.659,157.391v10.313l83.232-2.203
	c1.09-1.945,2.109-3.914,2.941-5.941L97.659,157.391z"/>
<path fill-rule="evenodd" clip-rule="evenodd" fill="#005496" d="M153.036,136.836c-1.271,1.23-2.883,1.969-4.635,1.969h-18.656
	v-2.555l-32.092-0.82v10.313l86.461-2.297c-0.516-1.84-1.137-3.82-1.846-5.883L153.036,136.836z"/>
<polygon fill-rule="evenodd" clip-rule="evenodd" fill="#005496" points="97.659,200.633 129.733,199.79 129.733,191.141 
	97.659,190.333 "/>
<polygon fill-rule="evenodd" clip-rule="evenodd" fill="#005496" points="97.659,189.665 129.733,188.821 129.733,180.161 
	97.659,179.352 "/>
<path fill-rule="evenodd" clip-rule="evenodd" fill="#005496" d="M185.315,148.614l-87.662-2.191v10.313l87.744-2.344
	c0.064-0.328,0.123-0.656,0.17-0.984C185.749,152.153,185.637,150.536,185.315,148.614"/>
<path fill-rule="evenodd" clip-rule="evenodd" fill="#005496" d="M97.659,102.506v10.307l73.752-1.969
	c-0.457-1.389-1.02-3.768-1.213-6.527L97.659,102.506z"/>
<path fill-rule="evenodd" clip-rule="evenodd" fill="#005496" d="M97.659,91.526v10.307l72.598-1.934
	c0.229-2.221,0.809-4.471,1.922-6.504L97.659,91.526z"/>
<path fill-rule="evenodd" clip-rule="evenodd" fill="#005496" d="M155.262,125.915c0.41,1.125,0.627,2.367,0.627,3.68
	c0,1.289-0.217,2.531-0.615,3.656l25.189-0.68c-0.756-2.004-1.559-4.055-2.391-6.094L155.262,125.915z"/>
<path fill-rule="evenodd" clip-rule="evenodd" fill="#005496" d="M97.659,113.481v10.301l32.074-0.844v-2.578h18.674
	c1.74,0,3.322,0.75,4.594,1.969l23.104-0.633c-0.926-2.156-1.84-4.277-2.736-6.316L97.659,113.481z"/>
<polygon fill-rule="evenodd" clip-rule="evenodd" fill="#005496" points="129.739,125.258 97.665,124.461 97.665,134.774 
	129.739,133.918 "/>
<path fill-rule="evenodd" clip-rule="evenodd" fill="#0DB14B" d="M327.985,146.071c3.867-4.395,6.703-11.965,6.703-19.102
	c0-21.75-13.699-35.227-29.438-35.227H262.36c1.055,25.828-9.633,34.781-9.633,34.781h-1.922c0,0-6.27,0.27-13.125,4.137
	c0,0,0.656-4.066,1.055-6.223h-2.145l-4.453,24.328c0,0-7.98,4.406-17.771,6.352l0.328,2.414c0,0,9.311-1.547,17.854-6.141
	c0,0,6.434,5.039,9.07,11.086c0,0,2.484,4.523,2.18,12.914c0,0-0.645,13.125,1.711,25.219l60.188,0.012
	c18.633,0,31.523-10.488,31.523-32.543C337.219,158.598,332.497,149.844,327.985,146.071 M274.219,121.836h21.188
	c2.461,0,4.453,2.414,4.453,5.414s-1.992,5.438-4.453,5.438h-21.188V121.836z M296.297,170.2h-22.078v-10.863h22.078
	c2.461,0,4.453,2.426,4.453,5.426S298.758,170.2,296.297,170.2"/>
<path fill-rule="evenodd" clip-rule="evenodd" fill="#ED1C24" d="M265.829,129.688c-1.875,3.07-2.836,4.336-4.418,4.746
	c-7.5,1.887-10.641-7.934-10.641-7.934c8.918-8.648,9.141-20.361,9.141-20.361c0.105-1.512-0.762-0.756-0.762-0.756
	c-23.039,20.906-35.994,24.129-35.994,24.129c-8.039,2.074-17.842-1.992-17.842-1.992l-2.338,7.277l-1.922-0.586l2.291-7.406
	c-5.854-1.547-13.406-7.055-13.406-7.055l-4.365,1.383c-4.131,0.914-2.748-3.445-2.748-3.445
	c2.063-13.324,21.949-17.813,21.949-17.813l-7.693-7.693c-0.926-0.949-2.074-0.803-2.074-0.803
	c-8.045,0.984-8.045-0.469-8.379-1.049c-0.873-1.512-1.477-7.547-1.477-7.547l-3.252-1.4c-0.686-0.469-0.457-1.623-0.457-1.623
	l1.992-6.691c0.305-0.996-0.68-1.383-0.68-1.383c-6.902-2.52-5.789-5.566-5.449-6.047c0.621-0.891,4.641-2.197,4.641-2.197
	c-0.463-8.631,4.359-12.803,7.922-14.59c7.107-3.557,17.578-1.453,21.838,0.691c13.67,6.891,8.988,22.717,8.221,23.057
	c-0.416,0.176-0.861,0.908-0.861,0.908c0.609,1.178,0.586,2.549,0.563,3.264c-0.094,2.508-1.752,5.174-1.752,5.174l3.1,3.111
	l-7.359,20.9l5.871,5.051c5.279-2.865,23.092-8.496,33.428-14.473c3.855-2.221,5.531-3.645,5.25-4.459
	c-0.41-1.119-4.277-4.02-7.781-8.174c-3.563-4.26-1.031-6.902-1.031-6.902l1.031-1.365c-0.164-0.756-5.508-15.229-14.988-32.93
	c-11.438-21.334-16.547-34.477-16.547-34.477s-2.027-4.787,4.477-7.406c6.551-2.648,8.215,1.945,8.215,1.945
	c1.102,2.297,6.094,12.984,12.82,36.146c5.813,20.004,11.965,34.535,11.965,34.535c2.191-0.504,3.961,0.457,3.961,0.457
	c3.434,1.488,3.902,3.674,3.902,3.674c0.797,1.148,2.883,10.535,3.211,10.939c0.422,0.516,1.945,0.287,2.789,0.674
	c2.414,1.102,2.613,3.322,2.613,3.322c0.457,4.588-0.293,7.383-1.488,9.1c-0.48,0.691-1.617,1.078-1.617,1.078
	c0.844,1.74,1.898,7.547,2.262,9.463c0.973,5.063-0.434,10.969-3.656,14.414C266.977,127.977,266.895,127.918,265.829,129.688"/>
<path fill-rule="evenodd" clip-rule="evenodd" fill="#005496" d="M89.403,91.69v29.912H58.477c0,0-21.973-0.645-21.973,24.586
	c0,24.328,21.146,23.836,21.146,23.836h31.752v30.586H52.852c1.559-0.105-53.027,1.828-52.852-53.367
	c0.17-57.557,54.41-55.459,52.852-55.518L89.403,91.69z"/>
</svg>
